<?xml version="1.0" encoding="UTF-8" standalone="no"?>
<!-- Created with Inkscape (http://www.inkscape.org/) -->

<svg
   width="104.1419mm"
   height="30.962112mm"
   viewBox="0 0 104.1419 30.962112"
   version="1.1"
   id="svg5"
   sodipodi:docname="np racing novy logo.svg"
   inkscape:version="1.2.2 (732a01da63, 2022-12-09)"
   xmlns:inkscape="http://www.inkscape.org/namespaces/inkscape"
   xmlns:sodipodi="http://sodipodi.sourceforge.net/DTD/sodipodi-0.dtd"
   xmlns="http://www.w3.org/2000/svg"
   xmlns:svg="http://www.w3.org/2000/svg">
  <sodipodi:namedview
     id="namedview13218"
     pagecolor="#ffffff"
     bordercolor="#000000"
     borderopacity="0.25"
     inkscape:showpageshadow="2"
     inkscape:pageopacity="0.0"
     inkscape:pagecheckerboard="0"
     inkscape:deskcolor="#d1d1d1"
     inkscape:document-units="mm"
     showgrid="false"
     inkscape:zoom="0.77996545"
     inkscape:cx="57.053809"
     inkscape:cy="15.385297"
     inkscape:window-width="1536"
     inkscape:window-height="793"
     inkscape:window-x="1592"
     inkscape:window-y="-8"
     inkscape:window-maximized="1"
     inkscape:current-layer="svg5" />
  <defs
     id="defs2">
    <linearGradient
       id="linearGradient1050">
      <stop
         style="stop-color:#000000;stop-opacity:1;"
         offset="0"
         id="stop1048" />
    </linearGradient>
  </defs>
  <g
     id="layer1"
     transform="translate(-54.124261,-130.25079)">
    <g
       aria-label="RACING"
       id="text326"
       style="font-size:17.6389px;font-family:'Yu Gothic';-inkscape-font-specification:'Yu Gothic';fill:#ffffff;fill-opacity:1;stroke-width:0.264583"
       transform="translate(5.19888e-7,-2.4052947)">
      <g
         aria-label="RACING"
         transform="scale(1.1966041,0.83569829)"
         id="text19116"
         style="font-size:14.1111px;font-family:'NEW ACADEMY';-inkscape-font-specification:'NEW ACADEMY';letter-spacing:5.29167px;fill:#ffffff;fill-opacity:1;stroke-width:2.21112">
        <path
           d="m 53.020878,195.78621 h -2.060221 l -2.610554,-2.65289 h -1.509887 v 2.65289 H 45.23155 v -7.02733 h 6.02544 q 1.580443,0 1.580443,1.22767 v 1.91911 q 0,0.889 -0.818444,1.22766 h -1.693332 z m -1.763888,-4.41678 v -0.84666 q 0,-0.55033 -0.465666,-0.55033 h -3.951108 v 1.96144 h 3.951108 q 0.465666,0 0.465666,-0.56445 z"
           id="path5700"
           style="fill:#ffffff;fill-opacity:1" />
        <path
           d="m 69.474419,195.78621 h -1.566332 l -0.917222,-1.53811 h -4.571996 l -0.874888,1.53811 h -1.622777 l 3.965219,-7.05555 h 1.566332 z m -3.217331,-2.82222 -1.580443,-2.86455 -1.566332,2.86455 z"
           id="path5702"
           style="fill:#ffffff;fill-opacity:1" />
        <path
           d="m 84.756759,194.1211 q 0,0.98778 -0.380999,1.32644 -0.366889,0.33867 -1.368777,0.33867 h -4.190997 q -1.001888,0 -1.382888,-0.33867 -0.366888,-0.33866 -0.366888,-1.32644 v -3.71122 q 0,-0.97367 0.366888,-1.31233 0.381,-0.35278 1.382888,-0.35278 h 4.190997 q 1.693332,0.0141 1.749776,1.17122 v 1.03011 h -1.636887 v -0.94544 h -4.416775 v 4.45911 h 4.416775 v -1.03011 h 1.636887 z"
           id="path5704"
           style="fill:#ffffff;fill-opacity:1" />
        <path
           d="m 95.438876,195.78621 h -1.622777 v -7.05555 h 1.622777 z"
           id="path5706"
           style="fill:#ffffff;fill-opacity:1" />
        <path
           d="m 112.80966,195.78621 h -1.42522 l -5.37633,-4.93889 v 4.93889 h -1.49578 v -7.05555 h 1.397 l 5.43278,4.92477 v -4.92477 h 1.46755 z"
           id="path5708"
           style="fill:#ffffff;fill-opacity:1" />
        <path
           d="m 130.26509,194.1211 q 0,0.98778 -0.381,1.32644 -0.36688,0.33867 -1.36877,0.33867 h -4.84011 q -1.00189,0 -1.38289,-0.33867 -0.36689,-0.33866 -0.36689,-1.32644 v -3.69711 q 0,-0.98778 0.36689,-1.32644 0.381,-0.33867 1.38289,-0.33867 h 4.84011 q 1.04422,0 1.397,0.36689 0.35277,0.35278 0.35277,1.38289 h -1.59455 v -0.49389 h -5.10822 v 4.445 h 5.10822 v -1.56634 h -2.94922 v -1.19944 h 4.54377 z"
           id="path5710"
           style="fill:#ffffff;fill-opacity:1" />
      </g>
    </g>
    <path
       id="path492"
       style="color:#000000;fill:#ffffff;fill-opacity:1;stroke-linejoin:round;-inkscape-stroke:none"
       d="m 111.60859,130.25083 c -0.96683,0.005 -1.91905,0.53479 -2.3828,1.51567 L 101.76888,147.53246 100,151.27435 h 5.85287 l 0.69867,-1.47846 h 5.2e-4 l 5.77949,-12.22045 11.88247,12.88242 c 1.27166,1.38021 3.53608,1.03468 4.33824,-0.66197 l 6.74016,-14.25185 h 16.1463 l -2.44895,5.17747 h -8.20725 l -2.50217,5.29115 h 12.38477 c 1.02253,-1.7e-4 1.95344,-0.58946 2.39107,-1.51361 l 4.95267,-10.46861 c 0.83036,-1.75547 -0.45016,-3.77762 -2.3921,-3.77755 h -21.99814 c -1.02309,-4.3e-4 -1.95475,0.58896 -2.39262,1.51361 l -5.7795,12.22096 -11.88247,-12.88294 c -0.53648,-0.58227 -1.24991,-0.85758 -1.95544,-0.85369 z" />
    <path
       id="path377"
       style="fill:#ffcc00;fill-opacity:1;stroke-width:1.61928;stroke-linecap:round"
       d="m 64.083427,130.25096 -9.959082,21.06022 h 4.532023 l 9.959082,-21.06022 z m 11.342977,0 -9.959082,21.06022 h 1.139465 4.505151 3.62872 l 9.959082,-21.06022 h -3.628719 -4.505152 z m 14.738635,0 -9.959082,21.06022 h 1.783354 v 5.1e-4 h 13.889591 l 0.535368,-1.13223 h -0.001 l 9.42371,-19.9285 H 97.007033 91.94791 Z" />
  </g>
</svg>
