<?xml version="1.0" encoding="UTF-8" standalone="no"?>
<!-- Created with Inkscape (http://www.inkscape.org/) -->

<svg
   width="210mm"
   height="297mm"
   viewBox="0 0 210 297"
   version="1.1"
   id="svg25111"
   xml:space="preserve"
   inkscape:export-filename="ppas logo.png"
   inkscape:export-xdpi="1000"
   inkscape:export-ydpi="1000"
   inkscape:version="1.2.2 (732a01da63, 2022-12-09)"
   sodipodi:docname="ppas.svg"
   xmlns:inkscape="http://www.inkscape.org/namespaces/inkscape"
   xmlns:sodipodi="http://sodipodi.sourceforge.net/DTD/sodipodi-0.dtd"
   xmlns="http://www.w3.org/2000/svg"
   xmlns:svg="http://www.w3.org/2000/svg"><sodipodi:namedview
     id="namedview25113"
     pagecolor="#ffffff"
     bordercolor="#000000"
     borderopacity="0.25"
     inkscape:showpageshadow="2"
     inkscape:pageopacity="0.0"
     inkscape:pagecheckerboard="0"
     inkscape:deskcolor="#d1d1d1"
     inkscape:document-units="mm"
     showgrid="false"
     inkscape:zoom="1.7008061"
     inkscape:cx="268.40215"
     inkscape:cy="582.07695"
     inkscape:window-width="1536"
     inkscape:window-height="793"
     inkscape:window-x="1592"
     inkscape:window-y="-8"
     inkscape:window-maximized="1"
     inkscape:current-layer="g25970" /><defs
     id="defs25108" /><g
     inkscape:label="Layer 1"
     inkscape:groupmode="layer"
     id="layer1"><g
       id="g26001"
       transform="matrix(0.26458333,0,0,0.26458333,20.00979,127.98542)">
	<g
   id="g25932">
		
			<linearGradient
   id="SVGID_1_"
   gradientUnits="userSpaceOnUse"
   x1="50.200001"
   y1="-17.196199"
   x2="50.200001"
   y2="127.1373"
   gradientTransform="matrix(1,0,0,-1,0,126)">
			<stop
   offset="0"
   style="stop-color:#005793"
   id="stop25923" />
			<stop
   offset="0.5408"
   style="stop-color:#00619E"
   id="stop25925" />
			<stop
   offset="1"
   style="stop-color:#006DAA"
   id="stop25927" />
		</linearGradient>
		<path
   class="st0"
   d="M 17.6,4.3 C 9.5,4.3 3,10.9 3,19 v 88.8 c 0,8.1 6.6,14.7 14.7,14.7 H 97.4 V 4.3 Z"
   id="path25930"
   style="fill:#005793;fill-opacity:1" />
	</g>
	<g
   id="g25970">
		<path
   class="st1"
   d="m 145,18.3 h 9.6 c 7.7,0 11.9,5 11.9,10.9 0,6 -4.2,10.9 -11.9,10.9 h -3.8 V 52.2 H 145 Z m 9.4,16.9 c 4.2,0 6,-3 6,-6 0,-3.2 -1.8,-6 -6,-6 h -3.6 v 12 z"
   id="path25934"
   style="fill:#ffcc00;fill-opacity:1" />
		<path
   class="st1"
   d="m 172.3,19.6 c 3.6,-1.1 7.2,-1.9 10.7,-1.9 7.4,0 11.3,5.3 11.3,11 0,3.3 -1.8,8.1 -6.9,9.9 l 6.5,13.6 h -6.3 l -5.9,-12.8 h -3.6 v 12.8 h -5.8 z m 10.2,15.1 c 3.8,0 5.8,-2.6 5.8,-6.1 0,-3.3 -1.5,-6.1 -5.2,-6.1 -1.7,0 -3.3,0.2 -5,0.7 v 11.5 z"
   id="path25936"
   style="fill:#ffcc00;fill-opacity:1" />
		<path
   class="st1"
   d="m 205.6,23.4 c 0.8,-3.3 3.2,-5.8 6.8,-5.8 3.6,0 6,2.6 6.8,5.8 l 7.6,28.7 H 221 L 218.7,43 h -12.4 l -2.3,9.1 h -5.8 z M 217.5,38.2 214,24.1 c -0.2,-0.9 -0.7,-1.5 -1.5,-1.5 -0.9,0 -1.3,0.6 -1.5,1.5 l -3.5,14.1 z"
   id="path25938"
   style="fill:#ffcc00;fill-opacity:1" />
		<path
   class="st1"
   d="m 230.9,47.7 15.2,-24.5 h -14.7 v -4.9 h 21.4 v 4.5 l -15.2,24.5 h 16 v 4.9 h -22.7 z m 6.8,-39.2 4.6,2.6 4.6,-2.6 2.3,3.4 -6.9,3.8 -6.9,-3.8 z"
   id="path25940"
   style="fill:#ffcc00;fill-opacity:1" />
		<path
   class="st1"
   d="m 259.1,46.1 c 3.1,1 5.7,1.7 8.7,1.7 3.9,0 5.5,-2 5.5,-4.8 0,-7.2 -14.7,-4.8 -14.7,-16.1 0,-5.9 4.8,-9.3 11.3,-9.3 3.1,0 5.3,0.7 8.4,1.8 l -1.5,4.6 c -2.6,-0.9 -4.4,-1.5 -6.9,-1.5 -3.4,0 -5.2,1.7 -5.2,4.4 0,6.3 14.7,4.8 14.7,16.1 0,5.9 -4.6,9.7 -11.6,9.7 -3.6,0 -6.2,-0.8 -9.7,-1.9 z"
   id="path25942"
   style="fill:#ffcc00;fill-opacity:1" />
		<path
   class="st1"
   d="m 285.5,18.3 h 5.8 v 14.2 l 3.5,-0.2 6.4,-14 h 6.4 l -7,14.5 c 2,0.8 3.2,2.4 3.9,4.6 l 5,14.8 h -6.1 L 298.9,39 c -0.4,-1.1 -1.1,-2 -2.6,-1.9 l -4.9,0.3 V 51 c 0,0.7 -0.4,1.2 -1.2,1.2 h -4.6 z"
   id="path25944"
   style="fill:#ffcc00;fill-opacity:1" />
		<path
   class="st1"
   d="m 320,23.4 c 0.8,-3.3 3.2,-5.8 6.8,-5.8 3.6,0 6,2.6 6.8,5.8 l 7.6,28.7 h -5.8 L 333,43 h -12.4 l -2.3,9.1 h -5.8 z m 1,-11.2 10,-3.7 1.5,4.2 -10.2,3 z m 10.9,26 -3.5,-14.1 c -0.2,-0.9 -0.7,-1.5 -1.5,-1.5 -0.9,0 -1.3,0.6 -1.5,1.5 l -3.5,14.1 z"
   id="path25946"
   style="fill:#ffcc00;fill-opacity:1" />
		<path
   class="st2"
   d="m 145,76.5 h 9.6 c 7.7,0 11.9,5 11.9,10.9 0,6 -4.2,10.9 -11.9,10.9 h -3.8 v 12.1 H 145 Z m 9.4,16.9 c 4.2,0 6,-3 6,-6 0,-3.2 -1.8,-6 -6,-6 h -3.6 v 12 z"
   id="path25948" />
		<path
   class="st2"
   d="m 172.3,76.5 h 5.8 v 29 H 193 v 3.7 c 0,0.7 -0.4,1.2 -1.2,1.2 h -19.5 z"
   id="path25950" />
		<path
   class="st2"
   d="m 202.5,96.7 c -4.5,-1 -6.5,-4.4 -7.4,-8.9 l -2.3,-11.3 h 5.8 l 2.1,10.5 c 0.6,3.1 1.6,5.2 4.7,5.2 3.1,0 4,-2.2 4.7,-5.3 l 2.1,-10.4 h 5.8 l -2.3,11.3 c -0.9,4.5 -2.9,8 -7.4,8.9 v 13.7 h -5.7 V 96.7 Z"
   id="path25952" />
		<path
   class="st2"
   d="m 223.6,76.5 h 5.3 l 13.4,23.4 C 242.1,97.6 242,95.2 242,93.5 v -17 h 5.7 v 33.9 h -5.3 L 229,87 c 0.2,2.3 0.3,4.7 0.3,6.4 v 17 h -5.7 z"
   id="path25954" />
		<path
   class="st2"
   d="m 260.9,81.6 c 0.8,-3.2 3.2,-5.8 6.8,-5.8 3.6,0 6,2.6 6.8,5.8 l 7.6,28.7 h -5.8 l -2.3,-9.1 h -12.4 l -2.3,9.1 h -5.8 z m 1,-11.2 10,-3.7 1.5,4.2 -10.2,3 z m 10.9,26 -3.5,-14.1 c -0.2,-0.9 -0.7,-1.5 -1.5,-1.5 -0.9,0 -1.3,0.6 -1.5,1.5 l -3.5,14.1 z"
   id="path25956" />
		<path
   class="st2"
   d="m 287.8,77.8 c 3.6,-1.1 7.2,-1.9 10.7,-1.9 7.4,0 11.3,5.3 11.3,11 0,3.2 -1.8,8.1 -6.9,9.9 l 6.5,13.6 h -6.3 l -5.9,-12.8 h -3.6 v 12.8 h -5.8 z M 298,92.9 c 3.8,0 5.8,-2.6 5.8,-6.1 0,-3.3 -1.5,-6.1 -5.2,-6.1 -1.6,0 -3.3,0.2 -4.9,0.7 v 11.5 z"
   id="path25958" />
		<path
   class="st2"
   d="m 315,85.5 c 0,-5.4 3.4,-9 10.3,-9 h 9.2 v 4.9 h -9.1 c -3.5,0 -4.6,1.6 -4.6,4.5 v 4.7 H 333 v 4.9 h -12.2 v 5.6 c 0,3 1.1,4.5 4.6,4.5 h 9.3 v 3.7 c 0,0.7 -0.4,1.2 -1.2,1.2 h -8.2 c -6.8,0 -10.3,-3.6 -10.3,-9 z"
   id="path25960" />
		<path
   class="st2"
   d="m 341.2,76.5 h 5.3 l 13.4,23.4 c -0.2,-2.3 -0.3,-4.7 -0.3,-6.4 v -17 h 5.7 v 33.9 H 360 L 346.6,87 c 0.2,2.3 0.3,4.7 0.3,6.4 v 17 h -5.7 z"
   id="path25962" />
		<path
   class="st2"
   d="m 372.3,104.3 c 3.1,1 5.7,1.7 8.7,1.7 3.9,0 5.5,-2 5.5,-4.8 0,-7.2 -14.7,-4.8 -14.7,-16.1 0,-5.9 4.8,-9.3 11.3,-9.3 3.1,0 5.3,0.7 8.4,1.8 l -1.5,4.6 c -2.6,-0.9 -4.4,-1.5 -6.9,-1.5 -3.4,0 -5.2,1.7 -5.2,4.4 0,6.3 14.7,4.8 14.7,16.1 0,5.9 -4.6,9.7 -11.6,9.7 -3.6,0 -6.2,-0.8 -9.7,-1.9 z"
   id="path25964" />
		<path
   class="st2"
   d="m 398.8,76.5 h 5.8 v 14.2 l 3.5,-0.2 6.4,-14 h 6.4 l -7,14.5 c 2,0.8 3.2,2.4 3.9,4.6 l 5,14.8 h -6.1 l -4.5,-13.2 c -0.4,-1.1 -1.1,-2 -2.6,-1.9 l -4.9,0.3 v 13.6 c 0,0.7 -0.4,1.2 -1.2,1.2 h -4.6 z"
   id="path25966" />
		<path
   class="st2"
   d="m 433.2,81.6 c 0.8,-3.2 3.2,-5.8 6.8,-5.8 3.6,0 6,2.6 6.8,5.8 l 7.6,28.7 h -5.8 l -2.3,-9.1 h -12.4 l -2.3,9.1 h -5.8 z m 1.1,-11.2 10,-3.7 1.5,4.2 -10.2,3 z m 10.8,26 -3.5,-14.1 c -0.2,-0.9 -0.7,-1.5 -1.5,-1.5 -0.9,0 -1.3,0.6 -1.5,1.5 L 435,96.4 Z"
   id="path25968" />
	</g>
	
		<linearGradient
   id="SVGID_2_"
   gradientUnits="userSpaceOnUse"
   x1="112.3"
   y1="3.5999999"
   x2="112.3"
   y2="121.7"
   gradientTransform="matrix(1,0,0,-1,0,126)">
		<stop
   offset="0"
   style="stop-color:#FDB73B"
   id="stop25972" />
		<stop
   offset="0.646"
   style="stop-color:#FFC333"
   id="stop25974" />
		<stop
   offset="1"
   style="stop-color:#FFCB2B"
   id="stop25976" />
	</linearGradient>
	<rect
   x="103.1"
   y="4.3000002"
   class="st3"
   width="18.4"
   height="118.1"
   id="rect25979"
   style="fill:#ffcc00;fill-opacity:1" />
	<g
   id="g25999"
   style="fill:#ffcc00;fill-opacity:1">
		<linearGradient
   id="SVGID_3_"
   gradientUnits="userSpaceOnUse"
   x1="22.5242"
   y1="62.099998"
   x2="80.469498"
   y2="62.099998">
			<stop
   offset="0"
   style="stop-color:#FDB73B"
   id="stop25981" />
			<stop
   offset="0.646"
   style="stop-color:#FFC333"
   id="stop25983" />
			<stop
   offset="1"
   style="stop-color:#FFCB2B"
   id="stop25985" />
		</linearGradient>
		<path
   class="st4"
   d="m 52,18.7 c -5.2,0 -32.5,39.3 -29.2,63.4 1.9,13.5 7.5,20.1 13.9,23.4 -1,-1.7 -1.8,-3.6 -2.6,-5.9 C 26.6,76.8 48.6,49.7 52,49.7 c 3.2,0 25.2,26.9 17.9,49.9 -0.7,2.3 -1.5,4.2 -2.5,5.8 C 73.6,102.1 79,95.4 80.3,82.1 82.8,58 56.9,18.7 52,18.7 Z"
   id="path25988"
   style="fill:#ffcc00;fill-opacity:1" />
		<linearGradient
   id="SVGID_4_"
   gradientUnits="userSpaceOnUse"
   x1="40.599998"
   y1="91.050003"
   x2="64.800003"
   y2="91.050003">
			<stop
   offset="0"
   style="stop-color:#FDB73B"
   id="stop25990" />
			<stop
   offset="0.646"
   style="stop-color:#FFC333"
   id="stop25992" />
			<stop
   offset="1"
   style="stop-color:#FFCB2B"
   id="stop25994" />
		</linearGradient>
		<path
   class="st5"
   d="m 64.8,96.2 c 0,4.7 -1.7,8 -3.9,10.1 -2.6,2.5 -5.9,3.4 -8.2,3.4 -2.2,0 -5.6,-0.9 -8.2,-3.4 -2.2,-2.1 -3.9,-5.4 -3.9,-10.1 0,-10.3 9.9,-23.8 12.1,-23.8 2,0 12.1,13.5 12.1,23.8 z"
   id="path25997"
   style="fill:#ffcc00;fill-opacity:1" />
	</g>
</g></g><style
     type="text/css"
     id="style25921">
	.st0{fill:url(#SVGID_1_);}
	.st1{fill:#FDB73B;}
	.st2{fill:#005793;}
	.st3{fill:url(#SVGID_2_);}
	.st4{fill:url(#SVGID_3_);}
	.st5{fill:url(#SVGID_4_);}
</style></svg>
